<?xml version="1.0" encoding="UTF-8"?>
<svg width="16px" height="16px" viewBox="0 0 16 16" version="1.1" xmlns="http://www.w3.org/2000/svg" xmlns:xlink="http://www.w3.org/1999/xlink">
    <!-- Generator: Sketch 51.2 (57519) - http://www.bohemiancoding.com/sketch -->
    <title>icon/我的/关于我们16</title>
    <desc>Created with Sketch.</desc>
    <defs></defs>
    <g id="icon/我的/关于我们16" stroke="none" stroke-width="1" fill="none" fill-rule="evenodd">
        <g id="Group" opacity="0" transform="translate(0.666667, 0.666667)" stroke-width="0.5">
            <circle id="Oval-2" stroke="#979797" cx="7.33333333" cy="7.33333333" r="7.08333333"></circle>
            <rect id="Rectangle" stroke="#D0021B" x="0.916666667" y="0.916666667" width="12.8333333" height="12.8333333" rx="0.666666667"></rect>
            <rect id="Rectangle" stroke="#979797" x="1.58333333" y="0.25" width="11.5" height="14.1666667" rx="0.666666667"></rect>
            <rect id="Rectangle" stroke="#979797" x="0.25" y="1.58333333" width="14.1666667" height="11.5" rx="0.666666667"></rect>
        </g>
        <path d="M12.5189935,9.71398846 C11.5745998,10.4910455 10.1878875,10.3451286 9.42141219,9.38807183 C8.6547867,8.43101505 8.7989231,7.02510017 9.74316667,6.2480431 C10.6875604,5.47083388 12.0744228,5.6167508 12.8408982,6.57380758 C13.6073735,7.53086435 13.4632371,8.93693139 12.5189935,9.71398846 Z M7.78672523,8.37652824 C8.01118764,8.3004506 8.26657933,8.3494446 8.44044386,8.51209861 C8.74042775,8.79236865 8.71805658,9.26435436 8.41386871,9.51677999 C8.23189651,9.66802235 7.9939213,9.70271375 7.78657509,9.63089646 L7.78672523,9.63180939 C7.78672523,9.63180939 7.14757037,9.46078684 6.79038236,9.6623926 C6.43334448,9.86399836 6.08891854,10.2201939 5.91280187,10.9954251 L5.91160073,10.9928385 C5.82887245,11.3237762 5.64644981,11.6320428 5.36583426,11.8651447 C4.6214298,12.4831995 3.49971829,12.3231322 2.96025778,11.4818656 C2.54946904,10.8409875 2.63655145,9.9744631 3.16610258,9.43020363 C3.65841847,8.92413513 4.36979167,8.81245315 4.95864892,9.05985765 L4.95834864,9.05924903 C4.95834864,9.05924903 4.96075091,9.06061843 4.96435432,9.06259645 C5.02516187,9.08846285 5.08416771,9.11904606 5.14182227,9.15267238 C5.49991114,9.32521648 6.29010893,9.65919734 6.66681542,9.44739718 C6.90839403,9.3115225 7.07805459,9.17017024 7.19666684,9.04372919 C7.28044612,8.95426188 7.34936134,8.85125275 7.39800737,8.73835352 C7.41542385,8.69772806 7.43704431,8.65862415 7.46256847,8.62180257 L7.46271861,8.6213461 L7.46286875,8.62149826 C7.53643837,8.51559818 7.64078712,8.42597871 7.78672523,8.37652824 Z M9.13337961,11.5465316 C9.51098695,12.0136483 9.44342302,12.7027596 8.98233668,13.0854302 C8.52125033,13.468405 7.84140698,13.4000873 7.46364949,12.9328184 C7.08604215,12.4657017 7.15375623,11.7767425 7.61484257,11.3937677 C8.07592891,11.0109449 8.75577227,11.0794148 9.13337961,11.5465316 Z M9.13337961,3.06706938 C9.51098695,3.53418612 9.44342302,4.22329743 8.98233668,4.60612015 C8.52125033,4.98894286 7.84140698,4.92062513 7.46379963,4.45335623 C7.08604215,3.98639165 7.15375623,3.29728034 7.61484257,2.91445763 C8.07592891,2.53163492 8.75577227,2.59995264 9.13337961,3.06706938 Z M8.29821427,6.25393151 C8.51171631,6.3570928 8.66200854,6.57208822 8.67582161,6.81158065 C8.69954406,7.2242258 8.36022295,7.54816441 7.96835211,7.51590749 C7.73383017,7.49658377 7.5387956,7.35401426 7.43865083,7.15651669 L7.43820041,7.15727747 C7.43820041,7.15727747 7.09542603,6.5844128 6.70025206,6.47820841 C6.30522824,6.37200401 5.81336277,6.3860023 5.15544015,6.81994919 L5.15634101,6.81721039 C4.87017019,6.99705795 4.5276961,7.09063345 4.16615396,7.06096317 C3.20704632,6.98184242 2.50918591,6.07743137 2.69746409,5.09237802 C2.84084978,4.34225244 3.49712083,3.77988649 4.25113438,3.76086708 C4.95214777,3.74306491 5.54040446,4.16331782 5.79474515,4.75565836 L5.79489529,4.75504974 C5.79489529,4.75504974 5.79579614,4.75778854 5.79699728,4.76159242 C5.823122,4.82306316 5.84459232,4.88651191 5.86320994,4.95117791 C6.0025418,5.32745795 6.34246347,6.12383874 6.75865733,6.23643365 C7.02560996,6.30870741 7.24451712,6.32650958 7.41657995,6.31890182 C7.53804489,6.31357638 7.6583087,6.28786214 7.77061498,6.24084615 C7.81085306,6.22380476 7.85319313,6.21102372 7.89688448,6.20250302 L7.8973349,6.20219871 L7.89718476,6.20235087 C8.02285368,6.17785386 8.1591827,6.18683103 8.29821427,6.25393151 Z" id="Combined-Shape-Copy" fill="#FFFFFF"></path>
    </g>
</svg>