<?xml version="1.0" encoding="UTF-8"?>
<svg width="16px" height="16px" viewBox="0 0 16 16" version="1.1" xmlns="http://www.w3.org/2000/svg" xmlns:xlink="http://www.w3.org/1999/xlink">
    <!-- Generator: Sketch 51.2 (57519) - http://www.bohemiancoding.com/sketch -->
    <title>icon/nav/资产16</title>
    <desc>Created with Sketch.</desc>
    <defs>
        <path d="M7.33333333,12.6666667 C11.3834215,12.6666667 14.6666667,10.0500882 14.6666667,6 C14.6666667,4.66666667 14,2.66666667 12.3333333,2 C10.6666667,1.33333333 9.27587891,2 7.33333333,2 C5.39078776,2 4,1.33333333 2.33333333,2 C0.666666667,2.66666667 0,4.66666667 0,6 C3.21988737e-16,10.0500882 3.28324517,12.6666667 7.33333333,12.6666667 Z" id="path-1"></path>
    </defs>
    <g id="icon/nav/资产16" stroke="none" stroke-width="1" fill="none" fill-rule="evenodd" opacity="0.5">
        <g id="Group-2" transform="translate(0.666667, 2.000000)">
            <circle id="Oval-8" fill="#FFFFFF" cx="7.33333333" cy="3.33333333" r="3.33333333"></circle>
            <g id="Oval-6">
                <use fill="#170F1A" fill-rule="evenodd" xlink:href="#path-1"></use>
                <use stroke="#170F1A" stroke-width="0.666666667" xlink:href="#path-1"></use>
                <path stroke="#FFFFFF" stroke-width="0.666666667" d="M7.33333333,12.3333333 C11.35396,12.3333333 14.3333333,9.72813868 14.3333333,6 C14.3333333,4.45651588 13.5223928,2.83463476 12.2095364,2.30949223 C11.7334199,2.11904562 11.2617304,2.03703704 10.7279731,2.03703704 C10.3161114,2.03703704 10.0391972,2.06592385 9.16666742,2.18226115 C8.35570434,2.29038956 7.89664844,2.33333333 7.33333333,2.33333333 C6.77001823,2.33333333 6.31096233,2.29038956 5.49999925,2.18226115 C4.62746947,2.06592385 4.35055525,2.03703704 3.93869358,2.03703704 C3.40493624,2.03703704 2.93324676,2.11904562 2.45713023,2.30949223 C1.14427389,2.83463476 0.333333333,4.45651588 0.333333333,6 C0.333333333,9.72813868 3.31270671,12.3333333 7.33333333,12.3333333 Z" stroke-linejoin="square"></path>
            </g>
            <path d="M7.4648318,4.66666667 C8.00795107,4.66666667 8.40428135,4.80611621 8.66850153,5.09235474 C8.88868502,5.34189602 9.00611621,5.68685015 9.00611621,6.12721713 L9.00611621,8.43058104 C9.00611621,8.50421901 8.94642084,8.56391437 8.87278287,8.56391437 L8.58899083,8.56391437 C8.51535286,8.56391437 8.45565749,8.50421901 8.45565749,8.43058104 L8.45565749,7.92538226 C8.3088685,8.13088685 8.11070336,8.29969419 7.87584098,8.43180428 C7.5969419,8.58593272 7.28134557,8.66666667 6.92905199,8.66666667 C6.54740061,8.66666667 6.24648318,8.57125382 6.01896024,8.38042813 C5.78409786,8.182263 5.66666667,7.92538226 5.66666667,7.61712538 C5.66666667,7.18409786 5.83547401,6.86116208 6.18776758,6.64097859 C6.49602446,6.43547401 6.93639144,6.32538226 7.5088685,6.31804281 L8.41896024,6.30336391 L8.41896024,6.10519878 C8.41896024,5.46666667 8.08868502,5.15107034 7.42813456,5.15107034 C7.14923547,5.15107034 6.92171254,5.20244648 6.74556575,5.31987768 C6.62689603,5.39020048 6.51217433,5.54343184 6.40140066,5.77957177 L6.40141233,5.77957725 C6.37788972,5.82972119 6.32581867,5.8601036 6.27059065,5.85590906 L5.96920101,5.833222 C5.89566288,5.82763682 5.84057613,5.76349471 5.84616131,5.68995659 C5.84732847,5.6745889 5.85114716,5.65953925 5.85744822,5.64547423 C6.02132003,5.27968495 6.19258856,5.04148915 6.37125382,4.93088685 C6.65015291,4.75474006 7.00978593,4.66666667 7.4648318,4.66666667 Z M8.41896024,6.74373089 L7.54556575,6.75840979 C6.6941896,6.77308869 6.26850153,7.05198777 6.26850153,7.60244648 C6.26850153,7.77859327 6.33455657,7.91804281 6.48134557,8.03547401 C6.62813456,8.14556575 6.81896024,8.20428135 7.05382263,8.20428135 C7.41345566,8.20428135 7.72905199,8.08685015 8.00795107,7.85198777 C8.2795107,7.62446483 8.41896024,7.36024465 8.41896024,7.06666667 L8.41896024,6.74373089 Z" id="a" fill="#FFFFFF"></path>
        </g>
    </g>
</svg>