<?xml version="1.0" encoding="UTF-8"?>
<svg width="16px" height="16px" viewBox="0 0 16 16" version="1.1" xmlns="http://www.w3.org/2000/svg" xmlns:xlink="http://www.w3.org/1999/xlink">
    <!-- Generator: Sketch 51.2 (57519) - http://www.bohemiancoding.com/sketch -->
    <title>icon/nav/资产on16</title>
    <desc>Created with Sketch.</desc>
    <defs></defs>
    <g id="icon/nav/资产on16" stroke="none" stroke-width="1" fill="none" fill-rule="evenodd">
        <circle id="Oval-8" fill="#FFFFFF" cx="8" cy="5.33333333" r="3.33333333"></circle>
        <path d="M8,14.9166667 C3.67331939,14.9166667 0.416666667,12.0690161 0.416666667,8 C0.416666667,6.24094643 1.33971125,4.39485726 2.90715233,3.76788083 C3.45578858,3.54842633 4.00060555,3.4537037 4.60536024,3.4537037 C5.05300606,3.4537037 5.34339963,3.48399664 6.24376142,3.60404488 C7.03080636,3.7089842 7.46925282,3.75 8,3.75 C8.53074718,3.75 8.96919364,3.7089842 9.75623858,3.60404488 C10.6566004,3.48399664 10.9469939,3.4537037 11.3946398,3.4537037 C11.9993945,3.4537037 12.5442114,3.54842633 13.0928477,3.76788083 C14.6602888,4.39485726 15.5833333,6.24094643 15.5833333,8 C15.5833333,12.0690161 12.3266806,14.9166667 8,14.9166667 Z" id="Oval-6" stroke="#170F1A" stroke-width="0.5" fill="#FFFFFF"></path>
        <path d="M8.13149847,6.66666667 C8.67461774,6.66666667 9.07094801,6.80611621 9.3351682,7.09235474 C9.55535168,7.34189602 9.67278287,7.68685015 9.67278287,8.12721713 L9.67278287,10.430581 C9.67278287,10.504219 9.61308751,10.5639144 9.53944954,10.5639144 L9.25565749,10.5639144 C9.18201953,10.5639144 9.12232416,10.504219 9.12232416,10.430581 L9.12232416,9.92538226 C8.97553517,10.1308869 8.77737003,10.2996942 8.54250765,10.4318043 C8.26360856,10.5859327 7.94801223,10.6666667 7.59571865,10.6666667 C7.21406728,10.6666667 6.91314985,10.5712538 6.68562691,10.3804281 C6.45076453,10.182263 6.33333333,9.92538226 6.33333333,9.61712538 C6.33333333,9.18409786 6.50214067,8.86116208 6.85443425,8.64097859 C7.16269113,8.43547401 7.6030581,8.32538226 8.17553517,8.31804281 L9.08562691,8.30336391 L9.08562691,8.10519878 C9.08562691,7.46666667 8.75535168,7.15107034 8.09480122,7.15107034 C7.81590214,7.15107034 7.5883792,7.20244648 7.41223242,7.31987768 C7.29356269,7.39020048 7.178841,7.54343184 7.06806733,7.77957177 L7.068079,7.77957725 C7.04455638,7.82972119 6.99248534,7.8601036 6.93725731,7.85590906 L6.63586768,7.833222 C6.56232955,7.82763682 6.5072428,7.76349471 6.51282797,7.68995659 C6.51399514,7.6745889 6.51781382,7.65953925 6.52411488,7.64547423 C6.68798669,7.27968495 6.85925523,7.04148915 7.03792049,6.93088685 C7.31681957,6.75474006 7.6764526,6.66666667 8.13149847,6.66666667 Z M9.08562691,8.74373089 L8.21223242,8.75840979 C7.36085627,8.77308869 6.9351682,9.05198777 6.9351682,9.60244648 C6.9351682,9.77859327 7.00122324,9.91804281 7.14801223,10.035474 C7.29480122,10.1455657 7.48562691,10.2042813 7.7204893,10.2042813 C8.08012232,10.2042813 8.39571865,10.0868502 8.67461774,9.85198777 C8.94617737,9.62446483 9.08562691,9.36024465 9.08562691,9.06666667 L9.08562691,8.74373089 Z" id="a" fill="#170F1A"></path>
    </g>
</svg>