<svg viewBox="0 0 233 175"  xmlns="http://www.w3.org/2000/svg" ><defs><style>.cls-1{fill:#fff;}</style></defs><title>应用管理（白色）</title><g id="图层_2" data-name="图层 2"><g id="图层_1-2" data-name="图层 1"><path class="cls-1" d="M208.07,54.62c-8.47,0-16,4.53-20.64,11.5h0c-3,3.24-7.44,4.91-12.23,5.68V0H110.51c.74,4.9,2.42,9.48,5.73,12.53h0c7,4.66,11.5,12.17,11.5,20.63,0,14.15-12.64,25.62-28.24,25.62S71.27,47.32,71.27,33.17A24.68,24.68,0,0,1,81.36,13.55h0S84.27,9.26,84.21,0H0V76.31c5.08-.71,9.85-2.39,13-5.8h0c4.66-7,12.17-11.5,20.63-11.5,14.15,0,25.63,12.64,25.63,28.23s-11.48,28.24-25.63,28.24A24.68,24.68,0,0,1,14,105.39h0s-4.42-3-14-2.85V175.2H86.71c-.36-6.33-1.94-12.66-6.14-16.53h0C73.6,154,69.07,146.5,69.07,138c0-14.15,12.64-25.62,28.24-25.62s28.23,11.47,28.23,25.62a24.71,24.71,0,0,1-10.08,19.63h0s-3.76,5.51-2.66,17.54h62.4v-77c9.05,0,13.24,2.85,13.24,2.85h0a24.7,24.7,0,0,0,19.63,10.09c14.15,0,25.62-12.64,25.62-28.24S222.22,54.62,208.07,54.62Z"/></g></g></svg>