<svg viewBox="0 0 233 233"  xmlns="http://www.w3.org/2000/svg" ><defs><style>.cls-1{fill:#fff;}</style></defs><title>锁定（白色）</title><g id="图层_2" data-name="图层 2"><g id="图层_1-2" data-name="图层 1"><path class="cls-1" d="M206,89.67c0-.19,0-.38,0-.58a89.1,89.1,0,0,0-178.19,0c0,.2,0,.39,0,.58H0V233.76H233.79V89.67ZM116.9,197.54a13.5,13.5,0,0,1-2.74-26.72l-4.44-47.38h14.36l-4.44,47.38a13.5,13.5,0,0,1-2.74,26.72ZM177,89.67H56.78c0-.19,0-.38,0-.58a60.14,60.14,0,0,1,120.27,0C177,89.29,177,89.48,177,89.67Z"/></g></g></svg>