<svg viewBox="0 0 232 231"  xmlns="http://www.w3.org/2000/svg"><defs><style>.cls-1{fill:#fff;}</style></defs><title>管理（白色）</title><g id="图层_2" data-name="图层 2"><g id="图层_1-2" data-name="图层 1"><path class="cls-1" d="M58,58C79.14,36.88,89.49,12.85,81.6,3.66l.16.13c-.15-.15-.28-.31-.43-.46a.81.81,0,0,0-.1-.09l-.1-.12C72.35-5.65,47.78,4.7,26.24,26.24S-5.65,72.35,3.12,81.13l.12.1a.81.81,0,0,0,.09.1l.46.43a1.83,1.83,0,0,1-.13-.16C12.85,89.49,36.88,79.14,58,58Z"/><path class="cls-1" d="M82.06,4.06a3.85,3.85,0,0,0-.3-.27,21.86,21.86,0,0,1,1.47,1.72A9.64,9.64,0,0,0,82.06,4.06Z"/><path class="cls-1" d="M4.06,82.06a9.64,9.64,0,0,0,1.45,1.17,21.86,21.86,0,0,1-1.72-1.47A3.85,3.85,0,0,0,4.06,82.06Z"/><path class="cls-1" d="M204.62,99.5c-2.66-2.67-6.5-3.91-11.18-3.91l0,0-32.61.79-.06,0a5.61,5.61,0,0,1,.7.59c7,7-1.83,27.08-19.66,44.92s-37.95,26.63-44.92,19.66a7.26,7.26,0,0,1-.89-1.1c7.81,5.21,26.84-3.57,43.82-20.55,2.36-2.36,4.56-4.76,6.59-7.16L70.27,63.88q2-2.21,3.77-4.47l83.62,56.72c4.28-8.48,5.5-15.8,2.8-20L79.37,51.74C89.81,34.65,91.71,16.48,83.23,5.51,89.76,15.3,79.41,38.49,59,59S15.3,89.76,5.51,83.23c11,8.47,29.1,6.58,46.16-3.82L96.3,160.92l-.79,32.61.08-.11c0,4.69,1.24,8.53,3.91,11.2,10.83,10.84,41-1.55,68.86-27.73l63.72,54.31-55.17-62.87C203.08,140.45,215.45,110.33,204.62,99.5Z"/></g></g></svg>