<svg viewBox="0 0 186 233"  xmlns="http://www.w3.org/2000/svg"><defs><style>.cls-1{fill:#fff;}</style></defs><title>权限（白色）</title><g id="图层_2" data-name="图层 2"><g id="图层_1-2" data-name="图层 1"><path class="cls-1" d="M186.9,40.77C145.51,43.9,93.45,0,93.45,0S41.4,43.9,0,40.77c0,0-2.51,168.7,93.44,192.53C189.41,209.47,186.9,40.77,186.9,40.77ZM93.45,219c-84.22-20.92-82-169-82-169,36.33,2.75,82-35.78,82-35.78s45.69,38.53,82,35.78C175.47,50.05,177.67,198.12,93.45,219Z"/><path class="cls-1" d="M93.45,32.14S55.74,64,25.75,61.67c0,0-1.81,122.23,67.7,139.49C163,183.9,161.15,61.67,161.15,61.67,131.16,64,93.45,32.14,93.45,32.14Zm35.2,64.73L83.47,142.05,58.25,116.83a5.68,5.68,0,0,1,8-8L83.47,126l37.15-37.15a5.68,5.68,0,0,1,8,8Z"/></g></g></svg>