<?xml version="1.0" encoding="UTF-8"?>
<svg width="22px" height="22px" viewBox="0 0 22 22" version="1.1" xmlns="http://www.w3.org/2000/svg" xmlns:xlink="http://www.w3.org/1999/xlink">
    <!-- Generator: Sketch 52.2 (67145) - http://www.bohemiancoding.com/sketch -->
    <title>icon/二维码22</title>
    <desc>Created with Sketch.</desc>
    <g id="icon/二维码22" stroke="none" stroke-width="1" fill="none" fill-rule="evenodd">
        <rect id="Rectangle-2" stroke="#FFFFFF" stroke-width="1.83333333" x="2.75" y="2.75" width="5.5" height="5.5"></rect>
        <rect id="Rectangle-2-Copy-2" stroke="#FFFFFF" stroke-width="1.83333333" x="2.75" y="13.75" width="5.5" height="5.5"></rect>
        <rect id="Rectangle-3" fill="#FFFFFF" x="1.83333333" y="9.16666667" width="1.83333333" height="1.83333333"></rect>
        <rect id="Rectangle-3-Copy-13" fill="#FFFFFF" x="4.58333333" y="15.5833333" width="1.83333333" height="1.83333333"></rect>
        <rect id="Rectangle-3-Copy" fill="#FFFFFF" x="9.16666667" y="7.33333333" width="1.83333333" height="1.83333333"></rect>
        <rect id="Rectangle-3-Copy-2" fill="#FFFFFF" x="7.33333333" y="11" width="1.83333333" height="1.83333333"></rect>
        <rect id="Rectangle-3-Copy-4" fill="#FFFFFF" x="11" y="1.83333333" width="1.83333333" height="1.83333333"></rect>
        <rect id="Rectangle-3-Copy-5" fill="#FFFFFF" x="15.5833333" y="9.16666667" width="1.83333333" height="1.83333333"></rect>
        <rect id="Rectangle-3-Copy-6" fill="#FFFFFF" x="13.75" y="11" width="1.83333333" height="1.83333333"></rect>
        <rect id="Rectangle-3-Copy-7" fill="#FFFFFF" x="9.16666667" y="18.3333333" width="1.83333333" height="1.83333333"></rect>
        <rect id="Rectangle-3-Copy-9" fill="#FFFFFF" x="14.6666667" y="14.6666667" width="1.83333333" height="3.66666667"></rect>
        <rect id="Rectangle-3-Copy-11" fill="#FFFFFF" x="18.3333333" y="11" width="1.83333333" height="2.75"></rect>
        <rect id="Rectangle-3-Copy-8" fill="#FFFFFF" x="14.6666667" y="18.3333333" width="4.58333333" height="1.83333333"></rect>
        <rect id="Rectangle-3-Copy-10" fill="#FFFFFF" x="11" y="12.8333333" width="9.16666667" height="1.83333333"></rect>
        <rect id="Rectangle-3-Copy-3" fill="#FFFFFF" x="4.58333333" y="4.58333333" width="1.83333333" height="1.83333333"></rect>
        <rect id="Rectangle-3-Copy-12" fill="#FFFFFF" x="15.5833333" y="4.58333333" width="1.83333333" height="1.83333333"></rect>
        <rect id="Rectangle-2-Copy" stroke="#FFFFFF" stroke-width="1.83333333" x="13.75" y="2.75" width="5.5" height="5.5"></rect>
    </g>
</svg>