<?xml version="1.0" encoding="UTF-8"?>
<svg width="16px" height="16px" viewBox="0 0 16 16" version="1.1" xmlns="http://www.w3.org/2000/svg" xmlns:xlink="http://www.w3.org/1999/xlink">
    <!-- Generator: Sketch 51.2 (57519) - http://www.bohemiancoding.com/sketch -->
    <title>icon/我的/设置16</title>
    <desc>Created with Sketch.</desc>
    <defs></defs>
    <g id="icon/我的/设置16" stroke="none" stroke-width="1" fill="none" fill-rule="evenodd">
        <g id="Group" opacity="0" transform="translate(0.666667, 0.666667)" stroke-width="0.5">
            <circle id="Oval-2" stroke="#979797" cx="7.33333333" cy="7.33333333" r="7.08333333"></circle>
            <rect id="Rectangle" stroke="#D0021B" x="0.916666667" y="0.916666667" width="12.8333333" height="12.8333333" rx="0.666666667"></rect>
            <rect id="Rectangle" stroke="#979797" x="1.58333333" y="0.25" width="11.5" height="14.1666667" rx="0.666666667"></rect>
            <rect id="Rectangle" stroke="#979797" x="0.25" y="1.58333333" width="14.1666667" height="11.5" rx="0.666666667"></rect>
        </g>
        <path d="M11.7661409,13.9016101 C11.7008237,13.7215014 11.6666667,13.5297554 11.6666667,13.3333333 C11.6666667,12.4128588 12.4128588,11.6666667 13.3333333,11.6666667 C13.5297554,11.6666667 13.7215014,11.7008237 13.9016101,11.7661409 C14.2603852,11.2051756 14.5376623,10.5954736 14.72379,9.95378528 C14.0740483,9.52914478 13.6666667,8.80099385 13.6666667,8 C13.6666667,7.19900615 14.0740483,6.47085522 14.72379,6.04621472 C14.5376623,5.40452635 14.2603852,4.79482436 13.9016101,4.23385908 C13.7215014,4.29917629 13.5297554,4.33333333 13.3333333,4.33333333 C12.4128588,4.33333333 11.6666667,3.58714125 11.6666667,2.66666667 C11.6666667,2.47024456 11.7008237,2.27849858 11.7661409,2.09838992 C11.2051756,1.73961484 10.5954736,1.46233771 9.95378528,1.27621003 C9.52914478,1.92595175 8.80099385,2.33333333 8,2.33333333 C7.19900615,2.33333333 6.47085522,1.92595175 6.04621472,1.27621003 C5.40452635,1.46233771 4.79482436,1.73961484 4.23385908,2.09838992 C4.29917629,2.27849858 4.33333333,2.47024456 4.33333333,2.66666667 C4.33333333,3.58714125 3.58714125,4.33333333 2.66666667,4.33333333 C2.47024456,4.33333333 2.27849858,4.29917629 2.09838992,4.23385908 C1.73961484,4.79482436 1.46233771,5.40452635 1.27621003,6.04621472 C1.92595175,6.47085522 2.33333333,7.19900615 2.33333333,8 C2.33333333,8.80099385 1.92595175,9.52914478 1.27621003,9.95378528 C1.46233771,10.5954736 1.73961484,11.2051756 2.09838992,11.7661409 C2.27849858,11.7008237 2.47024456,11.6666667 2.66666667,11.6666667 C3.58714125,11.6666667 4.33333333,12.4128588 4.33333333,13.3333333 C4.33333333,13.5297554 4.29917629,13.7215014 4.23385908,13.9016101 C4.79482436,14.2603852 5.40452635,14.5376623 6.04621472,14.72379 C6.47085522,14.0740483 7.19900615,13.6666667 8,13.6666667 C8.80099385,13.6666667 9.52914478,14.0740483 9.95378528,14.72379 C10.5954736,14.5376623 11.2051756,14.2603852 11.7661409,13.9016101 Z" id="Combined-Shape" stroke="#FFFFFF" stroke-width="0.666666667"></path>
        <circle id="Oval-12-Copy" stroke="#FFFFFF" stroke-width="0.666666667" cx="8" cy="8" r="2.33333333"></circle>
    </g>
</svg>