<?xml version="1.0" encoding="UTF-8"?>
<svg width="16px" height="16px" viewBox="0 0 16 16" version="1.1" xmlns="http://www.w3.org/2000/svg" xmlns:xlink="http://www.w3.org/1999/xlink">
    <!-- Generator: Sketch 51.2 (57519) - http://www.bohemiancoding.com/sketch -->
    <title>icon/我的/交易记录16</title>
    <desc>Created with Sketch.</desc>
    <defs></defs>
    <g id="icon/我的/交易记录16" stroke="none" stroke-width="1" fill="none" fill-rule="evenodd">
        <g id="Group" opacity="0" transform="translate(0.666667, 0.666667)" stroke-width="0.5">
            <circle id="Oval-2" stroke="#979797" cx="7.33333333" cy="7.33333333" r="7.08333333"></circle>
            <rect id="Rectangle" stroke="#D0021B" x="0.916666667" y="0.916666667" width="12.8333333" height="12.8333333" rx="0.666666667"></rect>
            <rect id="Rectangle" stroke="#979797" x="1.58333333" y="0.25" width="11.5" height="14.1666667" rx="0.666666667"></rect>
            <rect id="Rectangle" stroke="#979797" x="0.25" y="1.58333333" width="14.1666667" height="11.5" rx="0.666666667"></rect>
        </g>
        <circle id="Oval-10" stroke="#FFFFFF" stroke-width="0.666666667" cx="11" cy="11.3333333" r="3.66666667"></circle>
        <path d="M6.66666667,14.3333333 L3,14.3333333 C2.26362033,14.3333333 1.66666667,13.7662273 1.66666667,13.0666667 L1.66666667,2.93333333 C1.66666667,2.23377265 2.26362033,1.66666667 3,1.66666667 L11.3333333,1.66666667 C12.069713,1.66666667 12.6666667,2.23377265 12.6666667,2.93333333 L12.6666667,6.33333333" id="Rectangle-2" stroke="#FFFFFF" stroke-width="0.666666667" stroke-linecap="round"></path>
        <rect id="Rectangle-3" fill="#FFFFFF" x="3.33333333" y="4" width="5.33333333" height="1" rx="0.5"></rect>
        <rect id="Rectangle-3-Copy" fill="#FFFFFF" x="3.33333333" y="6" width="5.33333333" height="1" rx="0.5"></rect>
        <polyline id="Path-4" stroke="#FFFFFF" stroke-width="0.666666667" stroke-linecap="round" stroke-linejoin="round" points="12.3333333 10 10 10 10 12.6666667 12.3333333 12.6666667"></polyline>
        <path d="M10.3333333,11.3333333 L12.3333333,11.3333333" id="Path-16" stroke="#FFFFFF" stroke-width="0.666666667" stroke-linecap="round"></path>
    </g>
</svg>