<?xml version="1.0" encoding="UTF-8"?>
<svg width="88px" height="28px" viewBox="0 0 88 28" version="1.1" xmlns="http://www.w3.org/2000/svg" xmlns:xlink="http://www.w3.org/1999/xlink">
    <!-- Generator: Sketch 51.2 (57519) - http://www.bohemiancoding.com/sketch -->
    <title>icon/logo</title>
    <desc>Created with Sketch.</desc>
    <defs></defs>
    <g id="3启动页" stroke="none" stroke-width="1" fill="none" fill-rule="evenodd">
        <g id="3001启动页" transform="translate(-144.000000, -565.000000)">
            <g id="icon/logo" transform="translate(140.000000, 531.000000)">
                <g id="Group" opacity="0" stroke-width="1" transform="translate(4.000000, 4.000000)">
                    <circle id="Oval-2" stroke="#979797" stroke-width="0.5" cx="44" cy="44" r="43.75"></circle>
                    <rect id="Rectangle" stroke="#D0021B" stroke-width="0.5" x="4.25" y="4.25" width="79.5" height="79.5" rx="4"></rect>
                    <rect id="Rectangle" stroke="#979797" stroke-width="0.5" x="8.25" y="0.25" width="71.5" height="87.5" rx="4"></rect>
                    <rect id="Rectangle" stroke="#979797" stroke-width="0.5" x="0.25" y="8.25" width="87.5" height="71.5" rx="4"></rect>
                </g>
                <path d="M70.0760733,60.2966102 L70.0760733,34.7240003 L74.6022317,34.7240003 L74.6022317,60.2966102 L70.0760733,60.2966102 Z M89.0470425,46.3694025 L83.7988452,46.3690324 L83.7988452,60.2964992 L79.4062881,60.2964992 L79.4062881,46.3690324 L76.3275382,46.3690324 L76.3275382,42.3869012 L79.4062881,42.3872713 L79.4062881,40.2540925 C79.4062881,36.8000748 82.2067329,34 85.6607506,34 L89.0470425,34 L89.0470425,38.1087008 L86.1984864,38.1087008 C84.8732065,38.1087008 83.7988452,39.183062 83.7988452,40.5079718 L83.7988452,42.3872713 L89.0470425,42.3876414 L89.0470425,46.3694025 Z M88.1055793,60.2966102 L88.1055793,56.4021895 L92,56.4021895 L92,60.2966102 L88.1055793,60.2966102 Z M65.6533171,54.3835525 L68.3486574,57.2976139 C66.7002919,59.3342001 64.250319,60.4648145 61.1689785,60.4648145 C58.6527601,60.4648145 56.3807988,59.3782404 54.7490872,57.6321721 L54.7490872,59.8441794 L51.4749316,59.8441794 L51.4749316,57.7061895 C49.8484013,59.410438 47.6016059,60.4648145 45.1194355,60.4648145 C40.1554647,60.4648145 36.1315137,56.2491587 36.1315137,51.0487027 C36.1315137,45.8482466 40.1554647,41.6329609 45.1194355,41.6329609 C47.6016059,41.6329609 49.8484013,42.6869674 51.4749316,44.3908458 L51.4749316,42.253596 L54.7490872,42.253596 L54.7490872,44.4652332 C56.3807988,42.7191649 58.6527601,41.6329609 61.1689785,41.6329609 C66.1329493,41.6329609 69.5255326,45.5325628 69.5255326,50.7330188 C69.5255326,51.4657902 69.4078451,52.2041128 69.4078451,52.2041128 L55.3563993,52.2041128 C55.7094618,54.4834759 57.844121,56.3098529 60.6245812,56.3098529 C62.650805,56.3098529 64.2584609,55.6818161 65.6533171,54.3835525 Z M28.2850869,52.260255 C25.9572426,54.1502869 22.5391233,53.7953739 20.6498315,51.4675296 C18.7601696,49.1396853 19.1154527,45.7200856 21.4429269,43.8300537 C23.7707713,41.9396516 27.1892607,42.2945646 29.0785525,44.6224089 C30.9678442,46.9502533 30.6125612,50.370223 28.2850869,52.260255 Z M16.6204773,49.0071573 C17.1737566,48.822114 17.8032738,48.9412819 18.2318341,49.3369044 C18.971267,50.0186038 18.9161241,51.1666122 18.1663287,51.7805858 C17.7177839,52.1484518 17.1311967,52.2328316 16.6201072,52.0581507 L16.6204773,52.0603712 C16.6204773,52.0603712 15.0450189,51.644394 14.164583,52.1347586 C13.2845172,52.6251233 12.4355387,53.4914959 12.0014271,55.3770868 L11.9984664,55.3707953 C11.7945488,56.1757336 11.3448936,56.9255289 10.6532019,57.4925015 C8.8183128,58.995793 6.05339625,58.606462 4.72367531,56.5602535 C3.71111853,55.001449 3.92576873,52.8938061 5.23106396,51.5700066 C6.44457772,50.3390987 8.19804776,50.0674552 9.64952717,50.6692159 L9.648787,50.6677356 C9.648787,50.6677356 9.65470838,50.6710664 9.66359046,50.6758775 C9.81347551,50.7387922 9.95891952,50.8131796 10.1010328,50.8949687 C10.9836892,51.3146469 12.9314546,52.1269868 13.8600017,51.6118263 C14.455471,51.2813391 14.8736688,50.9375287 15.1660372,50.6299868 C15.3725454,50.4123759 15.5424152,50.1618273 15.6623232,49.8872231 C15.7052532,49.78841 15.7585457,49.6932977 15.8214604,49.6037368 L15.8218305,49.6026265 L15.8222006,49.6029966 C16.003543,49.3454164 16.2607531,49.1274354 16.6204773,49.0071573 Z M19.9398575,56.7175403 C20.8706251,57.8537059 20.7040862,59.5298279 19.5675504,60.4605955 C18.4310146,61.3921034 16.7552628,61.2259345 15.824125,60.0893987 C14.8933574,58.9532331 15.0602664,57.2774812 16.1968022,56.3459734 C17.333338,55.4148356 19.0090898,55.5813746 19.9398575,56.7175403 Z M19.9398575,36.0929874 C20.8706251,37.2291531 20.7040862,38.905275 19.5675504,39.8364128 C18.4310146,40.7675505 16.7552628,40.6013817 15.8244951,39.4648459 C14.8933574,38.3290503 15.0602664,36.6529284 16.1968022,35.7217906 C17.333338,34.7906529 19.0090898,34.9568217 19.9398575,36.0929874 Z M17.8812511,43.844376 C18.4075141,44.0952947 18.7779708,44.618227 18.8120187,45.2007432 C18.8704924,46.2044179 18.0340968,46.9923321 17.0681709,46.9138738 C16.4900958,46.8668728 16.0093534,46.5201017 15.7625056,46.0397294 L15.7613954,46.0415798 C15.7613954,46.0415798 14.9164878,44.648204 13.94242,44.3898836 C12.9687223,44.1315632 11.7563188,44.1656111 10.1345996,45.2210979 L10.1368201,45.2144364 C9.43143517,45.6518787 8.58726777,45.8794819 7.69609938,45.807315 C5.33198656,45.61487 3.61182431,43.4150756 4.07591284,41.0191354 C4.42934548,39.1946087 6.04699375,37.8267689 7.90556836,37.780508 C9.63350242,37.7372079 11.0835015,38.7593869 11.7104281,40.2001338 L11.7107982,40.1986535 C11.7107982,40.1986535 11.7130187,40.2053151 11.7159794,40.2145672 C11.7803744,40.3640822 11.8332968,40.5184083 11.8791876,40.675695 C12.2226279,41.5909191 13.0605038,43.527952 14.0863837,43.8018161 C14.7443976,43.9776072 15.2839837,44.0209073 15.7081029,44.002403 C16.0075029,43.9894499 16.3039422,43.9269053 16.580767,43.8125486 C16.6799502,43.7710989 16.7843146,43.7400116 16.8920098,43.7192868 L16.89312,43.7185466 L16.8927499,43.7189167 C17.2025124,43.6593327 17.5385509,43.6811678 17.8812511,43.844376 Z M60.6601095,45.2627697 C58.2486256,45.2627697 56.1964957,46.7793843 55.3900771,48.9088623 L65.5559843,48.9088623 C64.9031517,46.7901168 63.0715934,45.2627697 60.6601095,45.2627697 Z M46.1083067,56.5418972 C49.222955,56.5418972 51.7476854,54.0171668 51.7476854,50.9025185 C51.7476854,47.7878702 49.2225849,45.2627697 46.1083067,45.2627697 C42.9936584,45.2627697 40.468928,47.7878702 40.468928,50.9025185 C40.468928,54.0171668 42.9936584,56.5418972 46.1083067,56.5418972 Z" id="Combined-Shape" fill="#FFFFFF"></path>
            </g>
        </g>
    </g>
</svg>