<svg width="564px" height="599px" viewBox="0 0 564 599"  xmlns="http://www.w3.org/2000/svg">
  <metadata><?xpacket begin="﻿" id="W5M0MpCehiHzreSzNTczkc9d"?>
<x:xmpmeta xmlns:x="adobe:ns:meta/" x:xmptk="Adobe XMP Core 5.6-c140 79.160451, 2017/05/06-01:08:21        ">
   <rdf:RDF xmlns:rdf="http://www.w3.org/1999/02/22-rdf-syntax-ns#">
      <rdf:Description rdf:about=""/>
   </rdf:RDF>
</x:xmpmeta>
<?xpacket end="w"?></metadata>
<defs>
    <style>
      .cls-1 {
        fill: #fff;
        fill-rule: evenodd;
      }
    </style>
  </defs>
  <path id="备份_白色_" data-name="备份（白色）" class="cls-1" d="M494.952,334.152h87.062L429.287,598.985,322.3,413.505H17.986V0.026H110.58V0.015l320.427,0.01V192.174h64.015l0.08,13.379-0.15,128.508v0.091ZM323.33,19.182H110.711V153.614c0,3.136,1.83,5.22,3.041,5.22H320.283c1.206,0,3.047-2.084,3.047-5.22V19.182Zm80.788,7.771h-53.9V153.614c0,17.727-13.424,32.148-29.936,32.148H113.752c-16.511,0-29.941-14.421-29.941-32.148V27.074l0.061-.121H44.885V386.567l-0.11.01H306.769L276.53,334.152h78.837V192.174h48.751V26.953ZM469.1,347.7l-0.051-128.6H382.256V361.079H323.28l-0.161.04L429.308,544.892,535.657,361.079H469.178ZM233.482,46.95h54.381v98.41H233.482V46.95Z" transform="translate(-18)"/>
</svg>
