<svgwidth="596px" height="596px" viewBox="0 0 596 596"  xmlns="http://www.w3.org/2000/svg" >
  <metadata><?xpacket begin="﻿" id="W5M0MpCehiHzreSzNTczkc9d"?>
<x:xmpmeta xmlns:x="adobe:ns:meta/" x:xmptk="Adobe XMP Core 5.6-c140 79.160451, 2017/05/06-01:08:21        ">
   <rdf:RDF xmlns:rdf="http://www.w3.org/1999/02/22-rdf-syntax-ns#">
      <rdf:Description rdf:about=""/>
   </rdf:RDF>
</x:xmpmeta>
<?xpacket end="w"?></metadata>
<defs>
    <style>
      .cls-1 {
        fill: #fff;
        fill-rule: evenodd;
      }
    </style>
  </defs>
  <path id="删除_白色_" data-name="删除（白色）" class="cls-1" d="M89.158,510.779c-116.24-116.241-116.239-305.379,0-421.62s305.379-116.241,421.62,0,116.264,305.4.024,421.645S205.41,627.031,89.158,510.779ZM491.44,108.5C385.86,2.917,214.076,2.917,108.5,108.5s-105.581,277.365,0,382.944,277.389,105.605,382.97.025S597.033,214.09,491.44,108.5ZM210.129,441.329l-51.52-51.52,89.839-89.839-89.839-89.839,51.52-51.521,89.839,89.839,89.839-89.839,51.521,51.521L351.489,299.97,441.3,389.786l-51.52,51.52L299.968,351.49Z" transform="translate(-1.969 -1.969)"/>
</svg>
