<?xml version="1.0" encoding="UTF-8"?>
<svg width="16px" height="16px" viewBox="0 0 16 16" version="1.1" xmlns="http://www.w3.org/2000/svg" xmlns:xlink="http://www.w3.org/1999/xlink">
    <!-- Generator: Sketch 51.2 (57519) - http://www.bohemiancoding.com/sketch -->
    <title>icon/我的/帮助中心16</title>
    <desc>Created with Sketch.</desc>
    <defs></defs>
    <g id="icon/我的/帮助中心16" stroke="none" stroke-width="1" fill="none" fill-rule="evenodd">
        <g id="Group" opacity="0" transform="translate(0.666667, 0.666667)" stroke-width="0.5">
            <circle id="Oval-2" stroke="#979797" cx="7.33333333" cy="7.33333333" r="7.08333333"></circle>
            <rect id="Rectangle" stroke="#D0021B" x="0.916666667" y="0.916666667" width="12.8333333" height="12.8333333" rx="0.666666667"></rect>
            <rect id="Rectangle" stroke="#979797" x="1.58333333" y="0.25" width="11.5" height="14.1666667" rx="0.666666667"></rect>
            <rect id="Rectangle" stroke="#979797" x="0.25" y="1.58333333" width="14.1666667" height="11.5" rx="0.666666667"></rect>
        </g>
        <circle id="Oval-12-Copy" stroke="#FFFFFF" stroke-width="0.666666667" cx="8" cy="8" r="7"></circle>
        <path d="M8.11208151,4.66666667 C8.77438137,4.66666667 9.31441048,4.82234432 9.72197962,5.15201465 C10.1295488,5.47252747 10.3333333,5.91208791 10.3333333,6.47069597 C10.3333333,6.92857143 10.2008734,7.3040293 9.95633188,7.5970696 C9.86462882,7.68864469 9.56914119,7.93589744 9.08005822,8.32051282 C8.89665211,8.45787546 8.76419214,8.61355311 8.67248908,8.77838828 C8.5705968,8.96153846 8.51965066,9.15384615 8.51965066,9.37362637 L8.51965066,9.5018315 L7.34788937,9.5018315 L7.34788937,9.37362637 C7.34788937,9.02564103 7.40902475,8.72344322 7.55167394,8.47619048 C7.68413392,8.22893773 8.08151383,7.84432234 8.74381368,7.31318681 L8.86608443,7.18498168 C9.04949054,6.98351648 9.1411936,6.76373626 9.1411936,6.53479853 C9.1411936,6.23260073 9.03930131,5.99450549 8.8558952,5.82051282 C8.66229985,5.64652015 8.38719068,5.56410256 8.04075691,5.56410256 C7.59243086,5.56410256 7.27656477,5.68315018 7.08296943,5.93956044 C6.90975255,6.15018315 6.82823872,6.45238095 6.82823872,6.83699634 L5.66666667,6.83699634 C5.66666667,6.15934066 5.88064047,5.62820513 6.32896652,5.24358974 C6.76710335,4.85897436 7.3580786,4.66666667 8.11208151,4.66666667 Z M7.9286754,9.95054945 C8.15283843,9.95054945 8.34643377,10.014652 8.4992722,10.1428571 C8.6419214,10.2710623 8.72343523,10.4358974 8.72343523,10.6373626 C8.72343523,10.8388278 8.6419214,11.0128205 8.48908297,11.1410256 C8.33624454,11.2692308 8.15283843,11.3333333 7.9286754,11.3333333 C7.70451237,11.3333333 7.52110626,11.2600733 7.36826783,11.1318681 C7.2154294,11.003663 7.1441048,10.8388278 7.1441048,10.6373626 C7.1441048,10.4358974 7.2154294,10.2710623 7.36826783,10.1428571 C7.52110626,10.014652 7.70451237,9.95054945 7.9286754,9.95054945 Z" id="？" fill="#FFFFFF"></path>
    </g>
</svg>