<?xml version="1.0" encoding="UTF-8"?>
<svg width="16px" height="16px" viewBox="0 0 16 16" version="1.1" xmlns="http://www.w3.org/2000/svg" xmlns:xlink="http://www.w3.org/1999/xlink">
    <!-- Generator: Sketch 51.2 (57519) - http://www.bohemiancoding.com/sketch -->
    <title>icon/nav/我的16</title>
    <desc>Created with Sketch.</desc>
    <defs></defs>
    <g id="icon/nav/我的16" stroke="none" stroke-width="1" fill="none" fill-rule="evenodd" opacity="0.5">
        <g id="Group-2" transform="translate(1.666667, 1.333333)" stroke="#FFFFFF" stroke-width="0.666666667">
            <circle id="Oval-8" cx="6.33333333" cy="3" r="2.66666667"></circle>
            <path d="M6.33333333,13.3333333 C10.3473591,13.3333333 11.7406096,12.5901185 12.0008005,8.84262352 C12.0767701,7.74844424 11.5519087,6.85080786 10.3837348,6.11693653 C10.0209824,5.8890575 9.55337656,5.91754203 9.22096647,6.18776736 C8.32999712,6.9120609 7.36412795,7.27866274 6.33333333,7.27866274 C5.28514185,7.27866274 4.2401528,6.89983428 3.20328753,6.15164217 C2.8528467,5.89877538 2.37962221,5.89962125 2.03008759,6.15373922 C1.03631323,6.87623111 0.590793515,7.76136282 0.665866124,8.84262352 C0.904231877,12.2757734 2.30361814,13.2579943 5.44351963,13.3268277 C5.69038978,13.3322396 5.88926232,13.3333333 6.33333333,13.3333333 Z" id="Oval-6"></path>
        </g>
    </g>
</svg>