<?xml version="1.0" encoding="UTF-8"?>
<svg width="16px" height="16px" viewBox="0 0 16 16" version="1.1" xmlns="http://www.w3.org/2000/svg" xmlns:xlink="http://www.w3.org/1999/xlink">
    <!-- Generator: Sketch 51.2 (57519) - http://www.bohemiancoding.com/sketch -->
    <title>icon/nav/我的on16</title>
    <desc>Created with Sketch.</desc>
    <defs></defs>
    <g id="icon/nav/我的on16" stroke="none" stroke-width="1" fill="none" fill-rule="evenodd">
        <circle id="Oval-8" fill="#FFFFFF" cx="8" cy="4.33333333" r="3"></circle>
        <path d="M8,15.25 C7.55167466,15.25 7.34994703,15.2488906 7.09740143,15.2433543 C3.68605751,15.1685702 2.0128974,13.9941891 1.75060041,10.2163608 C1.66112692,8.92768617 2.20241993,7.85227784 3.3537327,7.01525269 C3.90715881,6.61290192 4.65642591,6.61156264 5.21128988,7.01193457 C6.15390857,7.69211925 7.08225559,8.02866274 8,8.02866274 C8.8920916,8.02866274 9.7294883,7.71082345 10.5196709,7.06846225 C11.0459813,6.64061 11.7863494,6.59550998 12.3607054,6.95631718 C13.7010806,7.79836902 14.3412651,8.89323484 14.2493996,10.2163608 C13.962171,14.3532756 12.2811473,15.25 8,15.25 Z" id="Oval-6" stroke="#170F1A" stroke-width="0.5" fill="#FFFFFF"></path>
    </g>
</svg>