<?xml version="1.0" encoding="UTF-8"?>
<svg width="22px" height="22px" viewBox="0 0 22 22" version="1.1" xmlns="http://www.w3.org/2000/svg" xmlns:xlink="http://www.w3.org/1999/xlink">
    <!-- Generator: Sketch 51.2 (57519) - http://www.bohemiancoding.com/sketch -->
    <title>icon/扫码22</title>
    <desc>Created with Sketch.</desc>
    <defs></defs>
    <g id="icon/扫码22" stroke="none" stroke-width="1" fill="none" fill-rule="evenodd" stroke-linecap="round">
        <path d="M2.29166667,7.79166667 L2.29166667,4.125 C2.29166667,3.11247796 3.11247796,2.29166667 4.125,2.29166667 L7.79166667,2.29166667" id="路径" stroke="#FFFFFF" stroke-width="0.916666667" stroke-linejoin="round"></path>
        <path d="M2.29166667,19.7083333 L2.29166667,16.0416667 C2.29166667,15.0291446 3.11247796,14.2083333 4.125,14.2083333 L7.79166667,14.2083333" id="路径-copy-2" stroke="#FFFFFF" stroke-width="0.916666667" stroke-linejoin="round" transform="translate(5.041667, 16.958333) scale(1, -1) translate(-5.041667, -16.958333) "></path>
        <path d="M14.2083333,7.79166667 L14.2083333,4.125 C14.2083333,3.11247796 15.0291446,2.29166667 16.0416667,2.29166667 L19.7083333,2.29166667" id="路径-copy" stroke="#FFFFFF" stroke-width="0.916666667" stroke-linejoin="round" transform="translate(16.958333, 5.041667) scale(-1, 1) translate(-16.958333, -5.041667) "></path>
        <path d="M14.2083333,19.7083333 L14.2083333,16.0416667 C14.2083333,15.0291446 15.0291446,14.2083333 16.0416667,14.2083333 L19.7083333,14.2083333" id="路径-copy-3" stroke="#FFFFFF" stroke-width="0.916666667" stroke-linejoin="round" transform="translate(16.958333, 16.958333) scale(-1, -1) translate(-16.958333, -16.958333) "></path>
        <path d="M0.916666667,11 L21.0833333,11" id="路径-2" stroke="#FFFFFF" stroke-width="0.916666667"></path>
    </g>
</svg>