<?xml version="1.0" encoding="UTF-8"?>
<svg width="16px" height="16px" viewBox="0 0 16 16" version="1.1" xmlns="http://www.w3.org/2000/svg" xmlns:xlink="http://www.w3.org/1999/xlink">
    <!-- Generator: Sketch 51.2 (57519) - http://www.bohemiancoding.com/sketch -->
    <title>icon/我的/钱包16</title>
    <desc>Created with Sketch.</desc>
    <defs></defs>
    <g id="icon/我的/钱包16" stroke="none" stroke-width="1" fill="none" fill-rule="evenodd">
        <g id="Group" opacity="0" transform="translate(0.666667, 0.666667)" stroke-width="0.5">
            <circle id="Oval-2" stroke="#979797" cx="7.33333333" cy="7.33333333" r="7.08333333"></circle>
            <rect id="Rectangle" stroke="#D0021B" x="0.916666667" y="0.916666667" width="12.8333333" height="12.8333333" rx="0.666666667"></rect>
            <rect id="Rectangle" stroke="#979797" x="1.58333333" y="0.25" width="11.5" height="14.1666667" rx="0.666666667"></rect>
            <rect id="Rectangle" stroke="#979797" x="0.25" y="1.58333333" width="14.1666667" height="11.5" rx="0.666666667"></rect>
        </g>
        <rect id="Rectangle-2" stroke="#FFFFFF" stroke-width="0.666666667" x="1" y="3.66666667" width="14" height="10" rx="1.66666667"></rect>
        <path d="M1.7086725,3 L14.2913275,3 C14.1433132,2.42492426 13.6212798,2 13,2 L3,2 C2.37872019,2 1.85668676,2.42492426 1.7086725,3 Z" id="Rectangle-2-Copy" stroke="#FFFFFF" stroke-width="0.666666667"></path>
        <path d="M12,7 L15,7 L15,10.3333333 L12,10.3333333 C11.6318102,10.3333333 11.3333333,10.0348565 11.3333333,9.66666667 L11.3333333,7.66666667 C11.3333333,7.29847683 11.6318102,7 12,7 Z" id="Rectangle-3" stroke="#FFFFFF" stroke-width="0.666666667"></path>
    </g>
</svg>