<?xml version="1.0" encoding="UTF-8"?>
<svg width="12px" height="12px" viewBox="0 0 12 12" version="1.1" xmlns="http://www.w3.org/2000/svg" xmlns:xlink="http://www.w3.org/1999/xlink">
    <!-- Generator: Sketch 51.2 (57519) - http://www.bohemiancoding.com/sketch -->
    <title>icon/复制12</title>
    <desc>Created with Sketch.</desc>
    <defs></defs>
    <g id="icon/复制12" stroke="none" stroke-width="1" fill="none" fill-rule="evenodd" stroke-opacity="0.6">
        <path d="M4,2.5 L10.25,2.5 C10.5261424,2.5 10.75,2.72385763 10.75,3 L10.75,10.25 C10.75,10.5261424 10.5261424,10.75 10.25,10.75 L4,10.75 C3.72385763,10.75 3.5,10.5261424 3.5,10.25 L3.5,3 C3.5,2.72385763 3.72385763,2.5 4,2.5 Z" id="Rectangle-2" stroke="#FFFFFF" stroke-width="0.5"></path>
        <path d="M1.75,1.25 L7.5,1.25 C7.77614237,1.25 8,1.47385763 8,1.75 L8,8.5 C8,8.77614237 7.77614237,9 7.5,9 L1.75,9 C1.47385763,9 1.25,8.77614237 1.25,8.5 L1.25,1.75 C1.25,1.47385763 1.47385763,1.25 1.75,1.25 Z" id="Rectangle-2" stroke="#FFFFFF" stroke-width="0.5" fill-opacity="0.2" fill="#FFFFFF"></path>
    </g>
</svg>